<?xml version="1.0" encoding="iso-8859-1"?>
<!-- Uploaded to: SVG Repo, www.svgrepo.com, Generator: SVG Repo Mixer Tools -->
<svg height="800px" width="800px" version="1.1" id="Layer_1" xmlns="http://www.w3.org/2000/svg" xmlns:xlink="http://www.w3.org/1999/xlink" 
	 viewBox="0 0 508.043 508.043" xml:space="preserve">
<path style="fill:#E8E3E3;" d="M352.422,6h-2h-190c-12,0-24,8-24,20v456c0,12,12,24,24,24h192c12,0,20-12,20-24V28v-2
	C372.422,14,364.422,6,352.422,6z"/>
<g>
	<path style="fill:#7D8B95;" d="M258.422,266c10,0,18-8,18-18s-8-18-18-18c-10,0-18,8-18,18S248.422,266,258.422,266z"/>
	<path style="fill:#7D8B95;" d="M194.422,266c10,0,18-8,18-18s-8-18-18-18s-18,8-18,18S184.422,266,194.422,266z"/>
	<path style="fill:#7D8B95;" d="M322.422,230c-10,0-18,8-18,18s8,18,18,18s18-8,18-18S332.422,230,322.422,230z"/>
	<path style="fill:#7D8B95;" d="M258.422,202c10,0,18-8,18-18s-8-18-18-18c-10,0-18,8-18,18S248.422,202,258.422,202z"/>
	<path style="fill:#7D8B95;" d="M194.422,202c10,0,18-8,18-18s-8-18-18-18s-18,8-18,18S184.422,202,194.422,202z"/>
	<path style="fill:#7D8B95;" d="M322.422,166c-10,0-18,8-18,18s8,18,18,18s18-8,18-18S332.422,166,322.422,166z"/>
	<path style="fill:#7D8B95;" d="M258.422,138c10,0,18-8,18-18s-8-18-18-18c-10,0-18,8-18,18S248.422,138,258.422,138z"/>
	<path style="fill:#7D8B95;" d="M194.422,138c10,0,18-8,18-18s-8-18-18-18s-18,8-18,18S184.422,138,194.422,138z"/>
	<path style="fill:#7D8B95;" d="M322.422,102c-10,0-18,8-18,18s8,18,18,18s18-8,18-18S332.422,102,322.422,102z"/>
</g>
<path style="fill:#E36D60;" d="M194.422,74c10,0,18-8,18-18s-8-18-18-18s-18,8-18,18S184.422,74,194.422,74z"/>
<g>
	<path style="fill:#7D8B95;" d="M238.422,324c0-1.2,0-2,0.4-3.2C238.422,322,238.422,322.8,238.422,324z"/>
	<path style="fill:#7D8B95;" d="M258.422,310c-7.6,0-14,6.4-14,14v24c0,7.6,6.4,14,14,14c7.6,0,14-6.4,14-14v-24
		C272.422,316.4,266.021,310,258.422,310z"/>
	<path style="fill:#7D8B95;" d="M238.822,351.2c0-1.2-0.4-2-0.4-3.2C238.422,349.2,238.422,350,238.822,351.2z"/>
	<path style="fill:#7D8B95;" d="M238.422,420c0-1.2,0-2,0.4-3.2C238.422,418,238.422,418.8,238.422,420z"/>
	<path style="fill:#7D8B95;" d="M238.822,447.2c0-1.2-0.4-2-0.4-3.2C238.422,445.2,238.422,446,238.822,447.2z"/>
	<path style="fill:#7D8B95;" d="M258.422,410c-18.4,0-14,16.8-14,14v24c0,7.6,6.4,14,14,14c7.6,0,14-6.4,14-14v-24
		C272.422,416.4,266.021,410,258.422,410z"/>
	<path style="fill:#7D8B95;" d="M194.422,404c-1.2,0-2,0-3.2-0.4C192.422,404,193.222,404,194.422,404z"/>
	<path style="fill:#7D8B95;" d="M184.422,388c0,7.6,6.4,14,14,14h24c7.6,0,14-6.4,14-14s-6.4-14-14-14h-24
		C190.822,374,184.422,380.4,184.422,388z"/>
	<path style="fill:#7D8B95;" d="M221.622,403.6c-1.2,0-2,0.4-3.2,0.4C219.622,404,220.422,404,221.622,403.6z"/>
	<path style="fill:#7D8B95;" d="M294.422,404c-1.2,0-2,0-3.2-0.4C292.422,404,293.221,404,294.422,404z"/>
	<path style="fill:#7D8B95;" d="M321.622,403.6c-1.2,0-2,0.4-3.2,0.4C319.622,404,320.422,404,321.622,403.6z"/>
	<path style="fill:#7D8B95;" d="M280.422,388c0,7.6,6.4,14,14,14h24c7.6,0,14-6.4,14-14s-6.4-14-14-14h-24
		C286.822,374,280.422,380.4,280.422,388z"/>
</g>
<path d="M156.021,508c-7.2,0-14-2.4-18.8-6.8s-7.2-10.4-7.2-17.2V28c0-15.6,12.4-28,28-28h192c15.6,0,28,12.4,28,28v456
	c0,7.2-2.4,13.2-7.2,17.2c-5.2,4.8-12.8,7.2-21.2,6.8h-191.6C157.622,508,156.822,508,156.021,508z M158.422,8c-11.2,0-20,8.8-20,20
	v456c0,4.8,1.6,8.8,4.4,11.6c3.6,3.2,8.8,4.8,15.2,4.4h192.4c6.8,0.4,12-1.2,15.6-4.4c2.8-2.8,4.4-6.8,4.4-11.6V28
	c0-11.2-8.8-20-20-20H158.422z"/>
<path d="M258.422,272c-13.2,0-24-10.8-24-24s10.8-24,24-24c13.2,0,24,10.8,24,24S271.622,272,258.422,272z M258.422,232
	c-8.8,0-16,7.2-16,16s7.2,16,16,16c8.8,0,16-7.2,16-16S267.221,232,258.422,232z"/>
<path d="M194.422,272c-13.2,0-24-10.8-24-24s10.8-24,24-24s24,10.8,24,24S207.622,272,194.422,272z M194.422,232
	c-8.8,0-16,7.2-16,16s7.2,16,16,16s16-7.2,16-16S203.222,232,194.422,232z"/>
<path d="M322.422,272c-13.2,0-24-10.8-24-24s10.8-24,24-24s24,10.8,24,24S335.622,272,322.422,272z M322.422,232
	c-8.8,0-16,7.2-16,16s7.2,16,16,16s16-7.2,16-16S331.221,232,322.422,232z"/>
<path d="M258.422,208c-13.2,0-24-10.8-24-24s10.8-24,24-24c13.2,0,24,10.8,24,24S271.622,208,258.422,208z M258.422,168
	c-8.8,0-16,7.2-16,16s7.2,16,16,16c8.8,0,16-7.2,16-16S267.221,168,258.422,168z"/>
<path d="M194.422,208c-13.2,0-24-10.8-24-24s10.8-24,24-24s24,10.8,24,24S207.622,208,194.422,208z M194.422,168
	c-8.8,0-16,7.2-16,16s7.2,16,16,16s16-7.2,16-16S203.222,168,194.422,168z"/>
<path d="M322.422,208c-13.2,0-24-10.8-24-24s10.8-24,24-24s24,10.8,24,24S335.622,208,322.422,208z M322.422,168
	c-8.8,0-16,7.2-16,16s7.2,16,16,16s16-7.2,16-16S331.221,168,322.422,168z"/>
<path d="M258.422,144c-13.2,0-24-10.8-24-24s10.8-24,24-24c13.2,0,24,10.8,24,24S271.622,144,258.422,144z M258.422,104
	c-8.8,0-16,7.2-16,16s7.2,16,16,16c8.8,0,16-7.2,16-16S267.221,104,258.422,104z"/>
<path d="M194.422,144c-13.2,0-24-10.8-24-24s10.8-24,24-24s24,10.8,24,24S207.622,144,194.422,144z M194.422,104
	c-8.8,0-16,7.2-16,16s7.2,16,16,16s16-7.2,16-16S203.222,104,194.422,104z"/>
<path d="M322.422,144c-13.2,0-24-10.8-24-24s10.8-24,24-24s24,10.8,24,24S335.622,144,322.422,144z M322.422,104
	c-8.8,0-16,7.2-16,16s7.2,16,16,16s16-7.2,16-16S331.221,104,322.422,104z"/>
<path d="M194.422,80c-13.2,0-24-10.8-24-24s10.8-24,24-24s24,10.8,24,24S207.622,80,194.422,80z M194.422,40c-8.8,0-16,7.2-16,16
	s7.2,16,16,16s16-7.2,16-16S203.222,40,194.422,40z"/>
<path d="M258.422,368c-11.2,0-20-8.8-20-20v-24c0-11.2,8.8-20,20-20c11.2,0,20,8.8,20,20v24C278.422,359.2,269.622,368,258.422,368z
	 M258.422,312c-6.8,0-12,5.2-12,12v24c0,6.8,5.2,12,12,12c6.8,0,12-5.2,12-12v-24C270.422,317.2,265.221,312,258.422,312z"/>
<path d="M258.422,468c-11.2,0-20-8.8-20-20v-24c0-11.2,8.8-20,20-20c11.2,0,20,8.8,20,20v24C278.422,459.2,269.622,468,258.422,468z
	 M258.422,412c-6.8,0-12,5.2-12,12v24c0,6.8,5.2,12,12,12c6.8,0,12-5.2,12-12v-24C270.422,417.2,265.221,412,258.422,412z"/>
<path d="M222.422,408h-24c-11.2,0-20-8.8-20-20s8.8-20,20-20h24c11.2,0,20,8.8,20,20S233.622,408,222.422,408z M198.422,376
	c-6.8,0-12,5.2-12,12s5.2,12,12,12h24c6.8,0,12-5.2,12-12s-5.2-12-12-12H198.422z"/>
<path d="M318.422,408h-24c-11.2,0-20-8.8-20-20s8.8-20,20-20h24c11.2,0,20,8.8,20,20S329.622,408,318.422,408z M294.422,376
	c-6.8,0-12,5.2-12,12s5.2,12,12,12h24c6.8,0,12-5.2,12-12s-5.2-12-12-12H294.422z"/>
</svg>